<svg xmlns="http://www.w3.org/2000/svg" viewBox="0 0 850 340">
  <style>
    text { font-family: -apple-system, BlinkMacSystemFont, 'Segoe UI', Helvetica, Arial, sans-serif; }
    .mono { font-family: 'SFMono-Regular', Consolas, 'Liberation Mono', Menlo, monospace; }
  </style>
  <defs>
    <marker id="ah-blue" viewBox="0 0 10 7" refX="9" refY="3.5" markerWidth="8" markerHeight="6" orient="auto">
      <polygon points="0,0.5 9,3.5 0,6.5" fill="#3b82f6"/>
    </marker>
    <marker id="ah-green" viewBox="0 0 10 7" refX="9" refY="3.5" markerWidth="8" markerHeight="6" orient="auto">
      <polygon points="0,0.5 9,3.5 0,6.5" fill="#22c55e"/>
    </marker>
  </defs>

  <!-- ── Left Card: Headless Caller ────────────────────────── -->
  <rect x="20" y="24" width="310" height="285" rx="12" fill="#161b22" stroke="#30363d"/>
  <path d="M20,36 A12,12 0 0 1 32,24 L318,24 A12,12 0 0 1 330,36 L330,72 L20,72Z" fill="#2563eb"/>
  <text x="175" y="52" text-anchor="middle" fill="#fff" font-size="15" font-weight="600">Headless Caller</text>
  <text x="175" y="66" text-anchor="middle" fill="rgba(255,255,255,0.75)" font-size="11">Linux / macOS / WSL</text>

  <text x="175" y="110" text-anchor="middle" fill="#e6edf3" font-size="14" font-weight="500">gpu-browser CLI</text>
  <text x="175" y="130" text-anchor="middle" fill="#8b949e" font-size="12">or curl + Bearer token</text>

  <line x1="48" y1="154" x2="302" y2="154" stroke="#30363d"/>

  <text x="175" y="182" text-anchor="middle" fill="#e6edf3" font-size="13" font-weight="500" class="mono">localhost:51234</text>

  <!-- ── Right Card: GPU Host ──────────────────────────────── -->
  <rect x="520" y="24" width="310" height="285" rx="12" fill="#161b22" stroke="#30363d"/>
  <path d="M520,36 A12,12 0 0 1 532,24 L818,24 A12,12 0 0 1 830,36 L830,72 L520,72Z" fill="#16a34a"/>
  <text x="675" y="52" text-anchor="middle" fill="#fff" font-size="15" font-weight="600">GPU Host</text>
  <text x="675" y="66" text-anchor="middle" fill="rgba(255,255,255,0.75)" font-size="11">Windows</text>

  <text x="675" y="106" text-anchor="middle" fill="#e6edf3" font-size="14" font-weight="500">bridge.exe</text>
  <text x="675" y="122" text-anchor="middle" fill="#8b949e" font-size="11">NSSM service · 127.0.0.1:51234</text>

  <line x1="675" y1="133" x2="675" y2="152" stroke="#6e7681" stroke-width="1.2"/>
  <polygon points="672,149 675,156 678,149" fill="#6e7681"/>

  <text x="675" y="176" text-anchor="middle" fill="#e6edf3" font-size="14" font-weight="500">chromedp</text>
  <text x="675" y="192" text-anchor="middle" fill="#8b949e" font-size="11">Chrome DevTools Protocol</text>

  <line x1="675" y1="203" x2="675" y2="222" stroke="#6e7681" stroke-width="1.2"/>
  <polygon points="672,219 675,226 678,219" fill="#6e7681"/>

  <text x="675" y="246" text-anchor="middle" fill="#e6edf3" font-size="14" font-weight="500">Chrome 148+</text>
  <text x="675" y="264" text-anchor="middle" fill="#8b949e" font-size="11">WebGPU · real GPU rendering</text>

  <!-- ── Connections ───────────────────────────────────────── -->

  <!-- SSH tunnel (dashed line with label badge) -->
  <line x1="330" y1="110" x2="520" y2="110" stroke="#8b949e" stroke-width="1.5" stroke-dasharray="6,4"/>
  <rect x="370" y="96" width="110" height="22" rx="6" fill="#21262d" stroke="#30363d" stroke-width="0.75"/>
  <text x="425" y="111" text-anchor="middle" fill="#8b949e" font-size="11" font-weight="500">SSH -L tunnel</text>
  <text x="425" y="130" text-anchor="middle" fill="#6e7681" font-size="10">port 51234</text>

  <!-- HTTP POST (blue arrow →) -->
  <line x1="330" y1="180" x2="512" y2="180" stroke="#3b82f6" stroke-width="1.5" marker-end="url(#ah-blue)"/>
  <text x="425" y="173" text-anchor="middle" fill="#3b82f6" font-size="11" font-weight="500">HTTP POST</text>

  <!-- JSON response (green arrow ←) -->
  <line x1="520" y1="218" x2="338" y2="218" stroke="#22c55e" stroke-width="1.5" marker-end="url(#ah-green)"/>
  <text x="425" y="237" text-anchor="middle" fill="#22c55e" font-size="11" font-weight="500">JSON response</text>
</svg>
